<svg xmlns="http://www.w3.org/2000/svg" viewBox="0 0 64 64">
  <rect width="64" height="64" rx="14" fill="#122A1D"/>
  <path d="M40 11c3.7-3.7 8.8-5.3 14.4-4.8.5 5.6-1.1 10.7-4.8 14.4" fill="#C9A227" opacity=".55"/>
  <path d="M32 9.5c-9.6 5.6-15 15.7-15 27 0 12 6.7 21.6 15 26.1 8.3-4.5 15-14.1 15-26.1 0-11.3-5.4-21.4-15-27Z" fill="#C9A227"/>
  <g opacity=".28" stroke="#2A1810" stroke-width="2.6" fill="none" stroke-linecap="round">
    <path d="M32 14v42"/><path d="M24 18c-2.4 10.4-2.4 22.4 0 32.8"/><path d="M40 18c2.4 10.4 2.4 22.4 0 32.8"/>
  </g>
</svg>
